<svg xmlns="http://www.w3.org/2000/svg" viewBox="0 0 204 60"><title>STPH_Logo_RGB_color_5</title><path d="M7.32935,59.93176H5.7739a6.28891,6.28891,0,0,1-4.12324-1.232A6.06185,6.06185,0,0,1,.05917,56.7074.33471.33471,0,0,1,.204,56.20016l1.88073-.97836a.34524.34524,0,0,1,.5064.18118A3.63891,3.63891,0,0,0,5.7739,57.43192H7.32935a3.56077,3.56077,0,0,0,3.58057-3.55041c0-2.42741-2.20624-3.478-4.62963-4.56488C3.49535,48.04854.34863,46.6356.34863,42.4331c0-3.478,2.568-6.05026,6.40179-6.05026h.57893A6.26626,6.26626,0,0,1,11.88644,37.977a6.331,6.331,0,0,1,1.19368,1.59413.34568.34568,0,0,1-.18089.507l-1.917.942c-.18066.10876-.32551.03633-.43386-.14486a3.7668,3.7668,0,0,0-3.219-1.9926H6.75042A3.344,3.344,0,0,0,3.20588,42.4331c0,2.17379,2.35109,3.15193,4.9191,4.31126,2.71263,1.23175,5.60615,2.862,5.60615,7.13715C13.73113,57.43192,11.2717,59.93176,7.32935,59.93176Z" transform="translate(0 0)"/><path d="M31.27405,59.31577a.32448.32448,0,0,1-.36178.25362H29.28474a.32448.32448,0,0,1-.36178-.25362L25.95713,49.09911a10.25191,10.25191,0,0,1-.36177-1.81142H25.487a13.10376,13.10376,0,0,1-.39805,1.81142L22.1594,59.31577a.32447.32447,0,0,1-.36177.25362H20.17009a.32448.32448,0,0,1-.36177-.25362L15.10638,43.88214c-.07231-.28972.03627-.4709.36177-.4709H17.783a.3241.3241,0,0,1,.36155.25361l2.45966,9.74553a17.09784,17.09784,0,0,1,.36155,1.77532h.10857a13.32579,13.32579,0,0,1,.39782-1.77532l2.82121-9.74553a.32448.32448,0,0,1,.36178-.25361h1.91677a.32434.32434,0,0,1,.36177.25361l2.71263,9.41948a12.05262,12.05262,0,0,1,.39782,1.99261h.10858a20.49825,20.49825,0,0,1,.39781-2.02871l2.4234-9.38338a.32448.32448,0,0,1,.36177-.25361h2.27855c.32551,0,.43409.18118.36178.4709Z" transform="translate(0 0)"/><path d="M40.17313,39.96958a1.79343,1.79343,0,1,1,1.80842-1.81142A1.81516,1.81516,0,0,1,40.17313,39.96958Zm1.0851,19.59981H39.1243c-.2532,0-.36178-.10876-.36178-.36238V43.77361c0-.25362.10858-.36237.36178-.36237h2.13393c.25319,0,.36177.10875.36177.36237V59.207C41.62,59.46063,41.51142,59.56939,41.25823,59.56939Z" transform="translate(0 0)"/><path d="M52.25428,59.93176H51.16919a6.1733,6.1733,0,0,1-4.30413-1.41294,5.74021,5.74021,0,0,1-1.37433-1.77532c-.10858-.21729-.03627-.36238.18088-.47091l1.73611-.86961a.31909.31909,0,0,1,.47013.14509,3.8738,3.8738,0,0,0,3.29134,2.02871h1.08509c2.02558,0,3.03837-1.15933,3.03837-2.49984,0-1.77509-2.35108-2.02871-4.88283-2.53595-2.38735-.4709-4.95536-1.5217-4.95536-4.56488,0-3.29679,2.45966-4.927,5.71473-4.927h1.08509A6.3973,6.3973,0,0,1,56.41379,44.317,6.00512,6.00512,0,0,1,57.933,46.16469a.34624.34624,0,0,1-.18089.50724l-1.73611.86938a.32642.32642,0,0,1-.47035-.14486,3.83733,3.83733,0,0,0-3.29134-1.99261H51.16919c-2.09766,0-2.92956,1.01447-2.92956,2.2099,0,1.99261,2.35085,2.1738,4.81051,2.681,2.74868.57966,5.06349,1.48537,5.06349,4.42C58.11363,57.57678,56.12432,59.93176,52.25428,59.93176Z" transform="translate(0 0)"/><path d="M67.77139,59.93176H66.6863a6.1733,6.1733,0,0,1-4.30413-1.41294,5.74021,5.74021,0,0,1-1.37433-1.77532c-.10859-.21729-.03627-.36238.18088-.47091l1.73611-.86961a.31909.31909,0,0,1,.47013.14509,3.8738,3.8738,0,0,0,3.29134,2.02871h1.08509c2.02558,0,3.03837-1.15933,3.03837-2.49984,0-1.77509-2.35108-2.02871-4.88283-2.53595-2.38735-.4709-4.95536-1.5217-4.95536-4.56488,0-3.29679,2.45966-4.927,5.71473-4.927h1.08509A6.3973,6.3973,0,0,1,71.9309,44.317a6.00512,6.00512,0,0,1,1.51918,1.84774.34624.34624,0,0,1-.18089.50724l-1.73611.86938a.32642.32642,0,0,1-.47035-.14486,3.83733,3.83733,0,0,0-3.29134-1.99261H66.6863c-2.09766,0-2.92956,1.01447-2.92956,2.2099,0,1.99261,2.35085,2.1738,4.81051,2.681,2.74868.57966,5.06349,1.48537,5.06349,4.42C73.63074,57.57678,71.64143,59.93176,67.77139,59.93176Z" transform="translate(0 0)"/><path d="M97.53709,39.24483H93.26924c-.2532,0-.36178.10876-.36178.36238V59.207c0,.25362-.10835.36238-.36155.36238H90.412c-.2532,0-.36178-.10876-.36178-.36238V39.60721c0-.25362-.10858-.36238-.36178-.36238H85.42058c-.2532,0-.36178-.10853-.36178-.36214V37.10737c0-.25362.10858-.36215.36178-.36215H97.53709c.2532,0,.36178.10853.36178.36215v1.77532C97.89887,39.1363,97.79029,39.24483,97.53709,39.24483Z" transform="translate(0 0)"/><path d="M108.35226,49.2442h-4.30412c-.2532,0-.36155.10853-.36155.36215V59.207c0,.25362-.10858.36238-.36178.36238h-2.09788c-.2532,0-.36155-.10876-.36155-.36238V37.10737c0-.25362.10835-.36215.36155-.36215h7.12533a6.00494,6.00494,0,0,1,6.402,6.4124C114.75427,46.5995,112.25857,49.2442,108.35226,49.2442Zm3.5808-6.44873a3.5846,3.5846,0,0,0-3.5808-3.55064h-4.30412c-.2532,0-.36155.10876-.36155.36238V46.382c0,.25362.10835.36238.36155.36238h4.30412a3.59188,3.59188,0,0,0,3.5808-3.58674Z" transform="translate(0 0)"/><path d="M131.46529,59.56939h-2.13416c-.2532,0-.36177-.10876-.36177-.36238V49.60635c0-.25362-.10858-.36215-.36178-.36215h-8.06536c-.25319,0-.36177.10853-.36177.36215V59.207c0,.25362-.10858.36238-.36178.36238H117.721c-.25319,0-.36177-.10876-.36177-.36238V37.10737c0-.25362.10858-.36215.36177-.36215h2.09766c.2532,0,.36178.10853.36178.36215V46.382c0,.25362.10858.36238.36177.36238h8.06536c.2532,0,.36178-.10876.36178-.36238V37.10737c0-.25362.10857-.36215.36177-.36215h2.13416c.25319,0,.36132.10853.36132.36215V59.207C131.82661,59.46063,131.71848,59.56939,131.46529,59.56939Z" transform="translate(0 0)"/><path d="M179.29349,26.07215c15.30286,7.21722,26.215,15.65665,24.5361,19.349-1.74059,3.82334-16.25832.94392-32.42356-6.43483s-27.86056-16.4615-26.1229-20.28484c.85128-1.87038,4.7419-2.096,10.38284-.977,0,0,.05222.01733.04716.04564s-.06159.02812-.06159.02812c-4.03581-.59939-6.52823-.23053-7.01816.84795-1.06,2.33038,9.3295,9.35513,23.20742,15.6895,13.87795,6.333,25.99063,9.5781,27.04921,7.24753.98776-2.17216-8.24921-9.03515-19.65015-15.39592,0,0-.0552-.0434-.03716-.09126S179.29349,26.07215,179.29349,26.07215Z" transform="translate(0 0)" style="fill:#bf3227"/><path d="M187.49785,1.68547c-5.94423-2.7215-12.759-2.03749-18.98633,1.2614,0,0-.04655.03948-.02754.0783s.08213.02117.08213.02117C173.68977.75739,179.09973.4375,183.85677,2.61615c10.71527,4.90559,14.05533,20.598,7.46245,35.05247C184.722,52.123,170.69134,59.85713,159.97609,54.95741c-4.75648-2.1771-8.05343-6.48181-9.67915-11.85808,0,0-.02436-.05207-.06659-.03741s-.04222.06815-.04222.06815c1.58846,6.8669,5.53011,12.46823,11.46891,15.18308,11.93671,5.46192,27.39815-2.776,34.53342-18.416s3.24266-32.74689-8.69261-38.21166" transform="translate(0 0)" style="fill:#468ab2"/><path d="M196.2207,42.32717a38.84715,38.84715,0,0,1-8.75513-1.90359l-2.24223,3.93251a69.09961,69.09961,0,0,0,9.22626,2.3071Z" transform="translate(0 0)" style="fill:#bf3227"/></svg>